<svg id="Calque_1" data-name="Calque 1" xmlns="http://www.w3.org/2000/svg" viewBox="0 0 403.02 91.23"><defs><style>.cls-1{fill:#3996c2;}</style></defs><title>Logo Rokhas Fr SVG</title><path class="cls-1" d="M142.69,87.87V36.51h24.66c11.94,0,20,5.84,20,17.85,0,9.06-4.57,14.12-11.31,16.3,4.78,5.55,9.91,11.73,14.4,17.21h-14.4c-4.5-5.27-8.71-10.4-13.28-16h-8.15v16Zm24.66-25.64c3.72,0,8.15-1.69,8.15-7.87,0-3.51-1.05-8.22-8.15-8.22H154.63V62.23Z" transform="translate(-11.49 -19.89)"/><path class="cls-1" d="M189.62,68.62c0-12,10.19-20.09,22.62-20.09S235,56.61,235,68.62s-10.33,20.16-22.77,20.16S189.62,80.77,189.62,68.62Zm11.17,0c0,7.31,4.92,11,11.45,11s11.46-3.86,11.46-11-5-10.89-11.46-10.89S200.79,61.59,200.79,68.62Z" transform="translate(-11.49 -19.89)"/><path class="cls-1" d="M251.59,34.76V65.67l14.19-16.23h13.84l-16.72,18,17.42,20.44H266.55L255.66,75.22l-4.07,4.36v8.29H240.21V34.76Z" transform="translate(-11.49 -19.89)"/><path class="cls-1" d="M323.32,65V87.87H311.94V66.44c0-7.44-4.08-8.85-8.64-8.85-4.85,0-9.28,2.18-9,11.31v19H282.92V34.69H294.3v18c2.74-2.6,7.38-4.35,12.86-4.35C318.89,48.32,323.32,54.29,323.32,65Z" transform="translate(-11.49 -19.89)"/><path class="cls-1" d="M361.89,84c-1.76,2.17-6.74,4.7-12.64,4.7-12.51,0-21-7.66-21-20.16s8.5-20.16,21-20.16c6,0,10.53,2.25,12.64,4.85l.7-4h10.54V87.87H362.59Zm-11-26.42c-6.46,0-11.45,3.44-11.45,11s5.2,10.89,11.45,10.89c7.1,0,11.45-4.15,11.45-10.89C362.31,62.16,358,57.59,350.86,57.59Z" transform="translate(-11.49 -19.89)"/><path class="cls-1" d="M377.77,82.74l5.9-7.31a27.56,27.56,0,0,0,13.56,4.15c3.44,0,6-.77,6-3.44,0-3.3-5.83-2.88-8.08-3.23-5.69-.92-16.51-1.76-16.51-12.16,0-12,13.21-12.22,17.21-12.22a28.53,28.53,0,0,1,17.36,5.55l-5.9,7.16c-3.09-1.68-7.17-3.58-11.81-3.58-2.24,0-5.48.28-5.48,2.88,0,3.3,5.69,3.3,10,4,4.92.77,14.54,1,14.54,11.66,0,8.71-6.25,12.57-17.14,12.57C388.38,88.78,382.34,86.11,377.77,82.74Z" transform="translate(-11.49 -19.89)"/><path class="cls-1" d="M25.93,61.74a43.1,43.1,0,0,1,25.83-39.5,1.23,1.23,0,0,0-.51-2.35H11.49v83.7H51.25a1.24,1.24,0,0,0,.51-2.36A43.09,43.09,0,0,1,25.93,61.74Z" transform="translate(-11.49 -19.89)"/><path class="cls-1" d="M86.82,19.89a1.23,1.23,0,0,0-.51,2.35,43.11,43.11,0,0,1,0,79,1.23,1.23,0,0,0,.51,2.36h39.76V19.89Z" transform="translate(-11.49 -19.89)"/><path class="cls-1" d="M68.45,95a29.6,29.6,0,0,1-29.34-24.9,2.36,2.36,0,0,1,4.65-.76A25,25,0,0,0,88.34,80.45a2.35,2.35,0,0,1,3.74,2.85A29.52,29.52,0,0,1,68.45,95Z" transform="translate(-11.49 -19.89)"/><path class="cls-1" d="M120.76,111.11v-3.39h-1.27v-.46h3.05v.46h-1.27v3.39Z" transform="translate(-11.49 -19.89)"/><path class="cls-1" d="M123.05,111.11v-3.85h.77l.91,2.73.18.57c0-.14.11-.35.21-.62l.92-2.68h.68v3.85h-.49v-3.22l-1.12,3.22h-.46l-1.11-3.27v3.27Z" transform="translate(-11.49 -19.89)"/></svg>